<?xml version="1.0" standalone="no"?>
<!DOCTYPE svg PUBLIC "-//W3C//DTD SVG 20010904//EN"
 "http://www.w3.org/TR/2001/REC-SVG-20010904/DTD/svg10.dtd">
<svg version="1.0" xmlns="http://www.w3.org/2000/svg"
 width="263.000000pt" height="263.000000pt" viewBox="0 0 263.000000 263.000000"
 preserveAspectRatio="xMidYMid meet">
<metadata>
Created by potrace 1.14, written by Peter Selinger 2001-2017
</metadata>
<g transform="translate(0.000000,263.000000) scale(0.100000,-0.100000)"
fill="#000000" stroke="none">
<path d="M1747 2539 c-148 -36 -312 -144 -391 -258 l-29 -41 -564 0 c-603 0
-592 1 -638 -50 -20 -22 -20 -38 -23 -856 -3 -922 -6 -874 61 -914 31 -19 56
-20 752 -20 l720 0 32 -68 c92 -197 331 -298 535 -226 148 52 263 187 288 339
5 33 10 159 10 280 0 202 -2 223 -20 253 -28 45 -80 69 -123 55 -29 -9 -37 -7
-65 17 l-32 26 0 116 c0 115 0 116 27 134 82 53 172 159 222 260 49 101 64
168 65 289 0 147 -15 203 -99 364 -48 92 -208 225 -326 271 -123 49 -275 60
-402 29z"/>
</g>
</svg>
